<svg clip-rule="evenodd" fill-rule="evenodd" stroke-linejoin="round" stroke-miterlimit="2" viewBox="0 0 200 67" xmlns="http://www.w3.org/2000/svg"><g fill-rule="nonzero"><path d="m63.654 46.277v20.043h6.634v-4.742h6.033l3.401 4.706 7.681.036-4.092-5.914c1.945-1.064 3.674-3.055 3.674-6.767.001-7.106-6.736-7.362-8.629-7.362zm38.2 20.043c5.394 0 9.833-.824 11.452-3.94 1.166-2.246 1.398-5.092 1.393-11.286l-.001-4.816h-7.021v8.968c0 2.45-.394 5.577-5.823 5.577-5.428 0-5.983-3.127-5.983-5.577v-8.968h-7.021l-.001 4.816c-.005 6.194.226 9.04 1.393 11.286 1.619 3.116 6.219 3.94 11.612 3.94zm-24.121-10.595c-.959 0-7.445 0-7.445 0v-3.594h7.338c.878 0 2.587.06 2.587 1.729 0 1.67-1.521 1.865-2.48 1.865zm-.608-32.436c-8.739 0-13.471 2.703-13.471 10.374 0 6.749 3.295 9.917 13.645 9.917 10.85 0 13.579-3.836 13.579-8.425h-6.82s-.055 2.786-6.986 2.786c-5.15 0-6.549-2.01-6.549-4.507 0-2.223.941-4.436 6.549-4.436 6.513 0 6.986 3.305 6.986 3.305h6.821c-.001-5.392-3.425-9.014-13.754-9.014zm27.985-.142c-8.979 0-13.294 3.146-13.294 9.843 0 7.166 3.938 10.59 13.478 10.59 9.292 0 13.718-2.427 13.718-10.216 0-7.962-5.219-10.217-13.902-10.217zm33.337 20.347 5.147-8.839v8.839h6.635v-20.043h-7.943l-6.486 11.107-6.479-11.107h-7.916v20.043h6.634v-8.779l4.93 8.779zm-33.089-5.165c-4.265 0-6.229-2.07-6.229-4.965 0-3.118 1.97-4.966 6.144-4.966 3.76 0 6.426 1.639 6.426 4.966 0 3.437-2.455 4.965-6.341 4.965zm20.399-29.388v4.716h8.241c-.836.835-1.614 1.645-5.738 1.645-5.753 0-6.782-1.905-6.782-4.403 0-2.746 1.174-4.727 6.782-4.727 4.209 0 6.048.968 6.837 2.088l6.198-2.088c-1.786-3.619-4.66-5.71-12.981-5.71-7.275 0-13.472 3.245-13.472 10.375 0 5.803 3.296 9.916 13.646 9.916 4.815 0 6.678-.802 8.265-2.155v2.077h5.315v-11.734zm-26.381-8.62c-8.98 0-13.295 3.146-13.295 9.843 0 7.165 3.939 10.589 13.478 10.589 9.293 0 13.719-2.427 13.719-10.216 0-7.961-5.219-10.216-13.902-10.216zm57.209 0c-8.98 0-13.295 3.146-13.295 9.843 0 7.165 3.939 10.589 13.478 10.589 9.292 0 13.719-2.427 13.719-10.216 0-7.961-5.219-10.216-13.902-10.216zm27.027.366c-8.828 0-12.274.604-12.274 6.528 0 5.151 4.142 5.552 12.273 6.22 5.243.431 5.834.309 5.834.951 0 .917-.533.868-5.339.868-5.114 0-5.615-.272-5.615-1.464h-6.874c0 5.833 1.619 6.878 12.189 6.878 11.478 0 13.407-1.078 13.407-6.212 0-5.151-2.378-5.304-13.492-6.212-5.032-.411-5.39-.436-5.438-.963 0-.74.423-.984 5.498-.984 5.244 0 5.651.589 5.651 1.642h7.08c0-5.792-2.425-7.252-12.9-7.252zm-113.324 13.346v-13.408h-6.634v20.043h21.161v-6.635zm29.336 1.47c-4.265 0-6.229-2.071-6.229-4.966 0-3.118 1.969-4.966 6.144-4.966 3.759 0 6.425 1.64 6.425 4.966 0 3.438-2.454 4.966-6.34 4.966zm57.209 0c-4.266 0-6.229-2.071-6.229-4.966 0-3.118 1.969-4.966 6.144-4.966 3.759 0 6.425 1.64 6.425 4.966 0 3.438-2.455 4.966-6.34 4.966z"/><path d="m.26-.233v-.469h-.233v.702h.702v-.233z" transform="matrix(47.4888 47.4888 -47.4354 47.4354 -1.30547 32.0146)"/></g></svg>