<?xml version="1.0" encoding="UTF-8" standalone="no"?>
<!DOCTYPE svg PUBLIC "-//W3C//DTD SVG 1.1//EN" "http://www.w3.org/Graphics/SVG/1.1/DTD/svg11.dtd">
<svg width="100%" height="100%" viewBox="0 0 220 18" version="1.1" xmlns="http://www.w3.org/2000/svg" xmlns:xlink="http://www.w3.org/1999/xlink" xml:space="preserve" xmlns:serif="http://www.serif.com/" style="fill-rule:evenodd;clip-rule:evenodd;stroke-linejoin:round;stroke-miterlimit:2;">
    <g id="url" transform="matrix(0.361659,0,0,0.361659,-25.6778,-150.492)">
        <path d="M580.929,450.423L580.929,465L585.754,465L585.754,461.551L590.141,461.551L592.615,464.974L598.201,465L595.225,460.699C596.639,459.925 597.897,458.477 597.897,455.777C597.898,450.609 592.998,450.423 591.621,450.423L580.929,450.423ZM608.711,465C612.633,465 615.861,464.4 617.039,462.134C617.887,460.501 618.056,458.431 618.052,453.926L618.052,450.424L612.945,450.424L612.945,456.946C612.945,458.727 612.659,461.002 608.711,461.002C604.763,461.002 604.359,458.727 604.359,456.946L604.359,450.424L599.253,450.424L599.252,453.926C599.248,458.431 599.417,460.501 600.266,462.134C601.443,464.4 604.789,465 608.711,465ZM591.168,457.294C590.47,457.294 585.754,457.294 585.754,457.294L585.754,454.68L591.09,454.68C591.729,454.68 592.972,454.724 592.972,455.938C592.972,457.152 591.865,457.294 591.168,457.294ZM590.726,433.704C584.37,433.704 580.929,435.67 580.929,441.249C580.929,446.158 583.325,448.461 590.852,448.461C598.743,448.461 600.728,445.671 600.728,442.334L595.768,442.334C595.768,442.334 595.728,444.36 590.687,444.36C586.942,444.36 585.924,442.898 585.924,441.082C585.924,439.465 586.609,437.856 590.687,437.856C595.424,437.856 595.768,440.26 595.768,440.26L600.729,440.26C600.728,436.338 598.238,433.704 590.726,433.704ZM611.494,433.601C604.963,433.601 601.825,435.889 601.825,440.759C601.825,445.971 604.69,448.461 611.627,448.461C618.386,448.461 621.605,446.696 621.605,441.031C621.605,435.241 617.809,433.601 611.494,433.601ZM635.324,448.399L639.067,441.97L639.067,448.398L643.892,448.398L643.892,433.822L638.116,433.822L633.399,441.9L628.687,433.822L622.929,433.822L622.929,448.398L627.755,448.398L627.755,442.014L631.339,448.399L635.324,448.399ZM611.674,444.643C608.572,444.643 607.144,443.137 607.144,441.031C607.144,438.764 608.577,437.42 611.613,437.42C614.347,437.42 616.286,438.612 616.286,441.031C616.286,443.531 614.5,444.643 611.674,444.643ZM626.51,423.27L626.51,426.699L632.503,426.699C631.895,427.306 631.329,427.895 628.33,427.895C624.146,427.895 623.398,426.51 623.398,424.693C623.398,422.696 624.251,421.255 628.33,421.255C631.391,421.255 632.728,421.959 633.302,422.774L637.81,421.255C636.511,418.623 634.421,417.103 628.369,417.103C623.078,417.103 618.572,419.462 618.572,424.648C618.572,428.868 620.968,431.86 628.496,431.86C631.998,431.86 633.352,431.277 634.506,430.292L634.506,431.803L638.372,431.803L638.372,423.27L626.51,423.27ZM606.908,417C600.377,417 597.239,419.288 597.239,424.158C597.239,429.37 600.104,431.86 607.041,431.86C613.8,431.86 617.019,430.095 617.019,424.43C617.019,418.64 613.223,417 606.908,417ZM649.345,417C642.814,417 639.676,419.288 639.676,424.158C639.676,429.37 642.54,431.86 649.478,431.86C656.236,431.86 659.455,430.095 659.455,424.43C659.455,418.64 655.66,417 649.345,417ZM669.416,417.266C662.996,417.266 660.489,417.706 660.489,422.014C660.489,425.76 663.502,426.051 669.415,426.538C673.228,426.851 673.658,426.762 673.658,427.229C673.658,427.896 673.27,427.86 669.775,427.86C666.056,427.86 665.692,427.663 665.692,426.796L660.692,426.796C660.692,431.038 661.87,431.798 669.557,431.798C677.905,431.798 679.307,431.014 679.307,427.28C679.307,423.534 677.578,423.422 669.495,422.763C665.836,422.464 665.575,422.445 665.541,422.062C665.541,421.524 665.848,421.347 669.539,421.347C673.353,421.347 673.649,421.775 673.649,422.541L678.798,422.541C678.798,418.328 677.034,417.266 669.416,417.266ZM585.754,426.973L585.754,417.221L580.929,417.221L580.929,431.798L596.319,431.798L596.319,426.973L585.754,426.973ZM607.088,428.042C603.986,428.042 602.558,426.536 602.558,424.43C602.558,422.163 603.991,420.818 607.027,420.818C609.761,420.818 611.699,422.011 611.699,424.43C611.699,426.93 609.914,428.042 607.088,428.042ZM649.525,428.042C646.423,428.042 644.995,426.536 644.995,424.43C644.995,422.163 646.427,420.818 649.463,420.818C652.197,420.818 654.136,422.011 654.136,424.43C654.136,426.93 652.351,428.042 649.525,428.042Z" style="fill-rule:nonzero;"/>
    </g>
    <g id="name" transform="matrix(0.361659,0,0,0.361659,-25.6778,-150.492)">
        <path d="M164.29,417C143.195,417 133.058,424.39 133.058,440.122C133.058,456.956 142.311,465 164.721,465C186.551,465 196.949,459.299 196.949,441C196.949,422.297 184.688,417 164.29,417ZM311.712,433.299C312.276,435.571 312.566,438.127 312.566,441C312.566,459.299 302.168,465 280.338,465C257.928,465 248.675,456.956 248.675,440.122C248.675,437.643 248.927,435.371 249.434,433.301L215.674,433.301L215.674,464.799L200.089,464.799L200.089,417.715L249.801,417.715L249.801,431.981C252.969,421.826 262.86,417 279.907,417C296.438,417 307.624,420.479 311.271,431.752L311.271,417.714L373.406,417.714L373.406,433.299L350.132,433.299L350.132,464.799L334.546,464.799L334.546,433.299L311.712,433.299ZM437.067,417.715L437.067,464.799L421.48,464.799L421.48,436.903L398.821,464.799L377.095,464.799L377.095,417.715L392.681,417.715L392.681,446.082L415.741,417.715L437.067,417.715ZM119.341,464.799L104.169,431.031L89,464.799L71,464.799L92.077,417.878L116.36,417.878L137.44,464.799L119.341,464.799ZM560.345,453.139C556.983,464.335 544.758,464.799 540.936,464.799L507.933,464.799L507.933,417.713L523.519,417.713L523.519,427.261L541.475,427.261C545.627,427.261 557.104,428.754 560.345,440.082L560.345,417.747L575.931,417.747L575.931,464.799L560.345,464.799L560.345,453.139ZM503.646,417.715L503.646,464.799L488.06,464.799L488.06,433.301L457.097,433.301L457.097,464.799L441.511,464.799L441.511,417.715L503.646,417.715ZM164.873,452.666C154.853,452.666 150.24,447.802 150.24,441C150.24,433.676 154.867,429.334 164.673,429.334C173.505,429.334 179.767,433.185 179.767,441C179.767,449.076 174.001,452.666 164.873,452.666L164.873,452.666ZM280.49,452.666C270.47,452.666 265.857,447.802 265.857,441C265.857,433.676 270.484,429.334 280.29,429.334C289.122,429.334 295.384,433.185 295.384,441C295.384,449.076 289.618,452.666 280.49,452.666L280.49,452.666ZM523.519,441.126L523.519,450.936L540.178,450.936C542.367,450.936 546.625,450.771 546.625,446.216C546.625,441.661 542.834,441.126 540.444,441.126L523.519,441.126Z"/>
    </g>
</svg>
