<svg version="1.1"
      xmlns="http://www.w3.org/2000/svg"
      xmlns:xlink="http://www.w3.org/1999/xlink"  id="snapshot-06418" width="250" height="250" viewBox="0 0 250 250"><desc>This image was made on Patterninja.com</desc><defs>
<!-- image 04379 -->
<g id="transformed-04379" data-image="04379" transform="translate(77.09939063621334, 109.52795125089708) rotate(325, 155.90060936378666, 12.472048749102926)"><g><svg version="1.1" width="311.8012187275733px" height="24.944097498205853px" viewBox="0 0 311.8012187275733 24.944097498205853"><g id="original-04379"><svg xmlns="http://www.w3.org/2000/svg" fill-rule="evenodd" stroke-miterlimit="2" viewBox="0 0 220 18" clip-rule="evenodd" stroke-linejoin="round" xmlns:xlink="http://www.w3.org/1999/xlink" version="1.1" preserveAspectRatio="xMidYMid meet">
  <path fill-rule="nonzero" d="M184.42 12.408v5.271h1.745v-1.247h1.587l.895 1.238 2.02.01-1.076-1.556c.511-.28.966-.804.966-1.78 0-1.87-1.772-1.936-2.27-1.936h-3.867zm10.048 5.271c1.418 0 2.586-.217 3.012-1.036.307-.59.368-1.34.366-2.969v-1.266H196v2.359c0 .644-.103 1.467-1.531 1.467s-1.574-.823-1.574-1.467v-2.36h-1.847v1.267c-.001 1.63.06 2.378.367 2.969.425.82 1.636 1.036 3.054 1.036zm-6.345-2.787h-1.958v-.945h1.93c.231 0 .68.016.68.455 0 .44-.4.49-.652.49zm-.16-8.531c-2.298 0-3.543.711-3.543 2.729 0 1.775.867 2.608 3.59 2.608 2.853 0 3.57-1.01 3.57-2.216h-1.793s-.014.733-1.838.733c-1.354 0-1.722-.529-1.722-1.186 0-.585.248-1.166 1.722-1.166 1.714 0 1.838.869 1.838.869h1.794c0-1.418-.9-2.371-3.617-2.371zm7.512-.037c-2.362 0-3.497.827-3.497 2.588 0 1.885 1.036 2.786 3.545 2.786 2.444 0 3.608-.638 3.608-2.687 0-2.094-1.373-2.687-3.656-2.687zm8.618 5.352l1.354-2.326v2.325h1.745V6.404h-2.09l-1.705 2.921-1.704-2.921h-2.083v5.271h1.745V9.366l1.297 2.31h1.44zm-8.553-1.359c-1.122 0-1.639-.545-1.639-1.306 0-.82.519-1.306 1.617-1.306.988 0 1.69.431 1.69 1.306 0 .904-.646 1.306-1.668 1.306zm5.365-7.73v1.24h2.168c-.22.22-.425.433-1.51.433-1.513 0-1.783-.5-1.783-1.158 0-.722.308-1.243 1.783-1.243 1.107 0 1.591.254 1.799.549l1.63-.55c-.47-.951-1.226-1.5-3.414-1.5-1.914 0-3.544.852-3.544 2.728 0 1.526.867 2.608 3.59 2.608 1.266 0 1.756-.21 2.173-.567v.546h1.398V2.587h-4.29zM193.815.32c-2.361 0-3.496.827-3.496 2.589 0 1.885 1.036 2.785 3.545 2.785 2.444 0 3.609-.638 3.609-2.687 0-2.094-1.373-2.687-3.657-2.687zm15.349 0c-2.362 0-3.497.827-3.497 2.589 0 1.885 1.036 2.785 3.545 2.785 2.444 0 3.608-.638 3.608-2.687 0-2.094-1.372-2.687-3.656-2.687zm7.259.096c-2.322 0-3.229.16-3.229 1.717 0 1.355 1.09 1.46 3.228 1.636 1.38.114 1.535.081 1.535.25 0 .241-.14.228-1.405.228-1.345 0-1.476-.07-1.476-.384h-1.809c0 1.534.426 1.809 3.207 1.809 3.019 0 3.526-.284 3.526-1.634 0-1.355-.626-1.396-3.549-1.634-1.323-.108-1.418-.115-1.43-.253 0-.195.111-.26 1.446-.26 1.38 0 1.486.156 1.486.433h1.863c0-1.524-.638-1.908-3.393-1.908zm-30.258 3.51V.4h-1.745v5.272h5.566V3.927h-3.82zm7.716.387c-1.122 0-1.638-.544-1.638-1.306 0-.82.518-1.306 1.616-1.306.989 0 1.69.431 1.69 1.306 0 .904-.646 1.306-1.668 1.306zm15.348 0c-1.122 0-1.639-.544-1.639-1.306 0-.82.518-1.306 1.616-1.306.99 0 1.69.431 1.69 1.306 0 .904-.645 1.306-1.667 1.306z" fill="rgba(255, 255, 255, 1)" stroke="none"/>
  <path d="M33.74.32c-7.63 0-11.296 2.672-11.296 8.362 0 6.088 3.346 8.997 11.451 8.997 7.895 0 11.656-2.061 11.656-8.68 0-6.763-4.435-8.68-11.812-8.68zm53.316 5.894c.204.822.309 1.747.309 2.786 0 6.618-3.761 8.68-11.656 8.68-8.105 0-11.451-2.91-11.451-8.998 0-.896.09-1.718.274-2.467h-12.21v11.392h-5.636V.578h17.979v5.16C65.811 2.065 69.388.32 75.553.32c5.979 0 10.024 1.258 11.343 5.335V.578h22.472v5.636h-8.417v11.393h-5.637V6.214h-8.258zM132.39.578v17.029h-5.637V7.517l-8.195 10.09h-7.857V.578h5.637v10.26l8.34-10.26h7.712zM17.483 17.607L11.996 5.394 6.51 17.607H0L7.623.637h8.782l7.624 16.97h-6.546zm159.493-4.217c-1.216 4.049-5.637 4.217-7.02 4.217h-11.935V.577h5.637v3.454h6.494c1.501 0 5.652.54 6.824 4.637V.59h5.637v17.017h-5.637V13.39zM156.47.578v17.029h-5.637V6.215h-11.198v11.392H134V.578h22.471zM33.95 13.218c-3.624 0-5.292-1.758-5.292-4.218 0-2.65 1.673-4.22 5.22-4.22 3.194 0 5.459 1.393 5.459 4.22 0 2.92-2.086 4.219-5.387 4.219zm41.814 0c-3.624 0-5.292-1.758-5.292-4.218 0-2.65 1.673-4.22 5.22-4.22 3.194 0 5.458 1.393 5.458 4.22 0 2.92-2.085 4.219-5.386 4.219zm87.894-4.173v3.548h6.024c.792 0 2.332-.06 2.332-1.707s-1.371-1.84-2.235-1.84h-6.121z" fill="rgba(255, 255, 255, 1)" stroke="none"/>
</svg>
</g></svg></g></g>
<!-- /image 04379 -->
</defs><rect x="0" y="0" width="250" height="250" fill="rgba(255, 255, 255, 0)"></rect><use xlink:href="#transformed-04379" transform="translate(-250, -250)"></use><use xlink:href="#transformed-04379" transform="translate(0, -250)"></use><use xlink:href="#transformed-04379" transform="translate(250, -250)"></use><use xlink:href="#transformed-04379" transform="translate(-250, 0)"></use><use xlink:href="#transformed-04379" transform="translate(0, 0)"></use><use xlink:href="#transformed-04379" transform="translate(250, 0)"></use><use xlink:href="#transformed-04379" transform="translate(-250, 250)"></use><use xlink:href="#transformed-04379" transform="translate(0, 250)"></use><use xlink:href="#transformed-04379" transform="translate(250, 250)"></use></svg>